# xmcd
#
# Track frame offsets: 
#        150
#        24530
#        44128
#        47881
#        63006
#        65916
#        81473
#        102785
#        119900
#        135646
#        155247
#
# Disc length: 2302 seconds
#
# Revision: 0
# Processed by: cddbd v1.5.2PL0 Copyright (c) Steve Scherf et al.
# Submitted via: ExactAudioCopy v0.99pb5
#
DISCID=aa08fc0b
DTITLE=Brian Kramer - Myself and Mine
DYEAR=2009
DGENRE=Blues
TTITLE0=Pocket Watch
TTITLE1=Journey to the Delta
TTITLE2=Introduction #1
TTITLE3=Touching a Cloud
TTITLE4=Introduction #2
TTITLE5=Just Scratchin' By
TTITLE6=My Precious Stone
TTITLE7=Love Just Fell Away
TTITLE8=Rainy Day in Amsterdam
TTITLE9=Speak of the Devil
TTITLE10=Would I Do Anything Different
EXTD=
EXTT0=
EXTT1=
EXTT2=
EXTT3=
EXTT4=
EXTT5=
EXTT6=
EXTT7=
EXTT8=
EXTT9=
EXTT10=
PLAYORDER=
